<svg width="1440" height="600" viewBox="0 0 1440 600" fill="none" xmlns="http://www.w3.org/2000/svg">

  <!-- Main emerald curves shifted to bottom -->
  <g stroke="#6EE7B7" stroke-width="1.6" stroke-linecap="round" opacity="0.42">

    <path d="M-120 320 C180 560 540 180 900 460 C1140 700 1320 420 1560 320"/>
    <path d="M-120 345 C180 580 540 200 900 480 C1140 720 1320 445 1560 345"/>
    <path d="M-120 370 C180 600 540 220 900 500 C1140 740 1320 470 1560 370"/>
    <path d="M-120 395 C180 620 540 240 900 520 C1140 760 1320 495 1560 395"/>
    <path d="M-120 420 C200 640 560 260 920 540 C1160 760 1340 520 1560 420"/>
    <path d="M-120 445 C200 660 560 280 920 560 C1160 740 1340 545 1560 445"/>
    <path d="M-120 470 C200 680 560 300 920 580 C1160 720 1340 570 1560 470"/>
    <path d="M-120 495 C200 700 560 320 920 600 C1160 700 1340 595 1560 495"/>
    <path d="M-120 520 C220 720 580 340 940 620 C1180 690 1360 615 1560 520"/>
    <path d="M-120 545 C220 740 580 360 940 640 C1180 710 1360 635 1560 545"/>
    <path d="M-120 570 C240 760 600 380 960 660 C1200 720 1380 660 1560 570"/>
    <path d="M-120 595 C240 780 600 400 960 680 C1200 730 1380 680 1560 595"/>

  </g>

  <!-- Reverse directional curves -->
  <g stroke="#A7F3D0" stroke-width="1.1" stroke-linecap="round" opacity="0.28">

    <path d="M1560 340 C1200 520 800 320 400 560 C120 700 -40 620 -120 680"/>
    <path d="M1560 370 C1200 550 800 350 400 590 C120 730 -40 650 -120 710"/>
    <path d="M1560 400 C1200 580 800 380 400 620 C120 750 -40 670 -120 740"/>
    <path d="M1560 430 C1200 610 800 410 400 650 C120 740 -40 690 -120 760"/>
    <path d="M1560 460 C1200 640 800 440 400 680 C120 730 -40 710 -120 760"/>

  </g>

  <!-- Bottom accent waves -->
  <g stroke="#D1FAE5" stroke-width="0.9" stroke-linecap="round" opacity="0.22">

    <path d="M0 470 C280 450 560 540 880 510 C1140 490 1320 500 1440 535"/>
    <path d="M0 500 C300 480 580 565 900 535 C1160 515 1335 525 1440 560"/>
    <path d="M0 530 C320 510 600 590 920 560 C1180 540 1350 550 1440 585"/>

  </g>

</svg>