<svg width="32" height="32" viewBox="0 0 32 32" fill="none" xmlns="http://www.w3.org/2000/svg">
<path fill-rule="evenodd" clip-rule="evenodd" d="M3.24275 8.5H3.1875C2.34175 8.5 1.53106 8.83575 0.933937 9.43394C0.33575 10.0311 0 10.8418 0 11.6875V26.5625C0 27.4083 0.33575 28.2189 0.933937 28.8161C1.53106 29.4142 2.34175 29.75 3.1875 29.75H4.43169C4.86944 30.9878 6.05094 31.875 7.4375 31.875C8.82406 31.875 10.0056 30.9878 10.4433 29.75H22.4942C22.9319 30.9878 24.1134 31.875 25.5 31.875C26.8866 31.875 28.0681 30.9878 28.5058 29.75C28.5058 29.75 31.875 30.0879 31.875 26.5625V22.4729C31.875 22.2339 31.7943 22.0022 31.6466 21.8153L27.3318 16.3423C27.1309 16.0863 26.8228 15.9375 26.4977 15.9375H21.25V11.6875C21.25 10.8418 20.9142 10.0311 20.3161 9.43394C19.7189 8.83575 18.9083 8.5 18.0625 8.5H18.0072C18.0434 8.1515 18.0625 7.79769 18.0625 7.4375C18.0625 3.33306 14.7294 0 10.625 0C6.52056 0 3.1875 3.33306 3.1875 7.4375C3.1875 7.79769 3.20662 8.1515 3.24275 8.5ZM7.4375 27.625C8.024 27.625 8.5 28.101 8.5 28.6875C8.5 29.274 8.024 29.75 7.4375 29.75C6.851 29.75 6.375 29.274 6.375 28.6875C6.375 28.101 6.851 27.625 7.4375 27.625ZM25.5 27.625C26.0865 27.625 26.5625 28.101 26.5625 28.6875C26.5625 29.274 26.0865 29.75 25.5 29.75C24.9135 29.75 24.4375 29.274 24.4375 28.6875C24.4375 28.101 24.9135 27.625 25.5 27.625ZM21.25 18.0625V27.625H22.4942C22.9319 26.3872 24.1134 25.5 25.5 25.5C26.8866 25.5 28.0681 26.3872 28.5058 27.625C28.5058 27.625 29.75 27.8237 29.75 26.5625V22.8416L25.9824 18.0625H21.25ZM17.5684 10.625C15.997 15.6889 11.2179 18.9444 11.2179 18.9444C10.8598 19.1856 10.3902 19.1856 10.0321 18.9444C10.0321 18.9444 5.253 15.6889 3.68156 10.625H3.1875C2.90594 10.625 2.635 10.7366 2.43631 10.9363C2.23656 11.135 2.125 11.4059 2.125 11.6875V26.5625C2.125 26.8441 2.23656 27.115 2.43631 27.3137C2.635 27.5134 2.90594 27.625 3.1875 27.625H4.43169C4.86944 26.3872 6.05094 25.5 7.4375 25.5C8.82406 25.5 10.0056 26.3872 10.4433 27.625H19.125V11.6875C19.125 11.4059 19.0134 11.135 18.8137 10.9363C18.615 10.7366 18.3441 10.625 18.0625 10.625H17.5684ZM10.625 16.7429C9.12687 15.5688 5.3125 12.1189 5.3125 7.4375C5.3125 4.505 7.6925 2.125 10.625 2.125C13.5575 2.125 15.9375 4.505 15.9375 7.4375C15.9375 12.1189 12.1231 15.5688 10.625 16.7429Z" fill="#6B1176"/>
<path fill-rule="evenodd" clip-rule="evenodd" d="M10.625 4.25C8.8655 4.25 7.4375 5.678 7.4375 7.4375C7.4375 9.197 8.8655 10.625 10.625 10.625C12.3845 10.625 13.8125 9.197 13.8125 7.4375C13.8125 5.678 12.3845 4.25 10.625 4.25ZM10.625 6.375C11.2115 6.375 11.6875 6.851 11.6875 7.4375C11.6875 8.024 11.2115 8.5 10.625 8.5C10.0385 8.5 9.5625 8.024 9.5625 7.4375C9.5625 6.851 10.0385 6.375 10.625 6.375Z" fill="#6B1176"/>
</svg>
